<svg xmlns="http://www.w3.org/2000/svg" width="600" height="126" viewBox="0 0 600 126" fill="none"><g clip-path="url(#clip0_3_242)"><path d="M83.7069 83.7069H83.7571V83.7571H125.611V41.8535H83.7069V83.7069Z" fill="#55BFAB"></path><path d="M41.8535 41.8535H83.7069V0H41.8033V41.8535H41.8535Z" fill="#EE358E"></path><path d="M41.8033 41.8535H0V83.7069H41.8535V41.8535H41.8033Z" fill="#FCBA72"></path><path d="M125.56 41.8535L83.7069 0V41.8535H125.611H125.56Z" fill="#5F3494"></path><path d="M0 83.7571L41.8535 125.611V83.7571V83.7069H0V83.7571Z" fill="#5F3494"></path><path d="M83.7069 83.7069H41.9036V125.611H83.7571V83.7571H83.7069V83.7069Z" fill="#5EC2EE"></path><path d="M236.015 13.8006V104.634H252.375V2.76012H247.056C240.984 2.76012 236.015 7.67815 236.015 13.8006Z" fill="#472E80"></path><path d="M301.204 33.5229C292.874 33.5229 285.346 36.0321 280.328 41.3014C280.328 35.4801 280.328 2.76012 280.328 2.76012H275.008C268.886 2.76012 263.968 7.72833 263.968 13.8006V104.634H271.997C275.611 104.634 278.571 101.723 278.622 98.1097L278.672 96.2027C283.54 102.426 292.121 105.989 301.255 105.989C320.124 105.989 335.982 91.084 335.982 69.8561C335.932 48.277 320.074 33.5229 301.204 33.5229ZM299.097 90.8832C287.855 90.8832 279.174 83.1047 279.174 69.7558C279.174 56.3065 287.906 48.5279 299.097 48.5279C310.84 48.5279 319.421 57.1094 319.421 69.7558C319.421 82.3018 310.84 90.8832 299.097 90.8832Z" fill="#472E80"></path><path d="M379.09 33.7738C358.615 33.7738 342.556 49.08 342.556 70.3078C342.556 91.5356 358.665 106.992 379.09 106.992C399.565 106.992 415.624 91.5356 415.624 70.3078C415.624 49.08 399.565 33.7738 379.09 33.7738ZM379.09 91.5858C367.598 91.5858 358.916 82.8538 358.916 70.358C358.916 57.812 367.648 49.1301 379.09 49.1301C390.582 49.1301 399.264 57.8622 399.264 70.358C399.264 82.904 390.582 91.5858 379.09 91.5858Z" fill="#472E80"></path><path d="M459.635 33.7738C439.16 33.7738 423.101 49.08 423.101 70.3078C423.101 91.5356 439.211 106.992 459.635 106.992C480.11 106.992 496.169 91.5356 496.169 70.3078C496.169 49.08 480.06 33.7738 459.635 33.7738ZM459.635 91.5858C448.143 91.5858 439.461 82.8538 439.461 70.358C439.461 57.812 448.193 49.1301 459.635 49.1301C471.128 49.1301 479.809 57.8622 479.809 70.358C479.809 82.904 471.077 91.5858 459.635 91.5858Z" fill="#472E80"></path><path d="M573.202 33.7738C563.165 33.7738 555.938 37.7384 551.974 43.911C548.009 37.6882 540.733 33.7738 530.846 33.7738C514.236 33.7738 504.199 44.8645 504.199 63.5831V99.6152C504.199 102.676 506.658 105.135 509.719 105.135H520.559V63.2318C520.559 54.3995 524.674 49.1301 532.051 49.1301C539.428 49.1301 543.944 54.3995 543.944 63.7839V99.7156C543.944 102.777 546.403 105.236 549.465 105.236H560.304V63.7337C560.304 54.3493 564.67 49.08 572.198 49.08C579.475 49.08 583.69 54.3493 583.69 63.1817V99.6152C583.69 102.676 586.149 105.135 589.21 105.135H600.05V63.5831C600 44.8645 589.813 33.7738 573.202 33.7738Z" fill="#472E80"></path><path d="M193.008 33.1716C182.871 33.1716 174.64 36.8351 168.97 42.807C173.586 45.818 178.153 48.7789 182.77 51.7899C185.179 49.5316 188.491 48.277 192.506 48.277C200.987 48.277 206.056 54.2489 206.306 62.9307H188.491C168.116 62.9307 159.384 73.0679 159.384 85.0619C159.384 97.357 169.371 105.788 182.67 105.788C192.907 105.788 202.543 100.87 206.306 94.5467C206.306 100.067 210.773 104.533 216.293 104.533H224.272V63.4326C224.272 44.5634 210.723 33.1716 193.008 33.1716ZM206.306 74.9247C206.306 85.915 196.169 91.4854 187.839 91.4854C181.265 91.4854 177.451 88.1733 177.451 83.1549C177.451 78.3372 181.014 74.4229 189.495 74.4229H206.306V74.9247Z" fill="#472E80"></path></g><defs><clipPath id="clip0_3_242"><rect width="600" height="125.611" fill="white"></rect></clipPath></defs></svg>